<svg width="1200" height="700" viewBox="0 0 1200 700" fill="none" xmlns="http://www.w3.org/2000/svg">
  <defs>
    <linearGradient id="metalStroke" x1="66" y1="78" x2="1146" y2="520" gradientUnits="userSpaceOnUse">
      <stop offset="0" stop-color="#F8FAFC"/>
      <stop offset="0.18" stop-color="#CBD5E1"/>
      <stop offset="0.52" stop-color="#FFFFFF"/>
      <stop offset="0.83" stop-color="#94A3B8"/>
      <stop offset="1" stop-color="#E2E8F0"/>
    </linearGradient>
    <linearGradient id="metalInner" x1="100" y1="164" x2="1090" y2="440" gradientUnits="userSpaceOnUse">
      <stop offset="0" stop-color="#0F172A"/>
      <stop offset="0.32" stop-color="#020617"/>
      <stop offset="0.55" stop-color="#334155"/>
      <stop offset="0.74" stop-color="#020617"/>
      <stop offset="1" stop-color="#0B1220"/>
    </linearGradient>
    <linearGradient id="edgeShine" x1="84" y1="188" x2="1108" y2="327" gradientUnits="userSpaceOnUse">
      <stop offset="0" stop-color="#FFFFFF" stop-opacity="0.6"/>
      <stop offset="0.38" stop-color="#FFFFFF" stop-opacity="0.08"/>
      <stop offset="0.66" stop-color="#FFFFFF" stop-opacity="0.55"/>
      <stop offset="1" stop-color="#FFFFFF" stop-opacity="0.15"/>
    </linearGradient>
    <filter id="shadow" x="0" y="0" width="1200" height="700" filterUnits="userSpaceOnUse" color-interpolation-filters="sRGB">
      <feGaussianBlur in="SourceAlpha" stdDeviation="8" result="blur"/>
      <feOffset dy="12"/>
      <feComponentTransfer>
        <feFuncA type="linear" slope="0.45"/>
      </feComponentTransfer>
      <feMerge>
        <feMergeNode/>
        <feMergeNode in="SourceGraphic"/>
      </feMerge>
    </filter>
  </defs>

  <g filter="url(#shadow)">
    <path d="M74 190H760V106L1130 350L760 594V510H74L176 350L74 190Z" fill="url(#metalStroke)"/>
    <path d="M110 224H730V156L1054 350L730 544V476H110L208 350L110 224Z" fill="url(#metalInner)"/>
    <path d="M110 224H730V156L1054 350L730 544V476H110L208 350L110 224Z" fill="url(#edgeShine)"/>
    <ellipse cx="560" cy="628" rx="315" ry="20" fill="#020617" fill-opacity="0.45"/>
  </g>
</svg>
